<svg width="205" height="89" viewBox="0 0 205 89" fill="none" xmlns="http://www.w3.org/2000/svg">
<path fill-rule="evenodd" clip-rule="evenodd" d="M56.153 0.995361C26.028 0.995361 0.927979 50.1474 0.927979 71.5054H203.423C203.423 44.4544 200.159 0.995361 155.867 0.995361H56.153Z" fill="#263238"/>
<path fill-rule="evenodd" clip-rule="evenodd" d="M56.153 0.995361C26.028 0.995361 0.927979 50.1474 0.927979 71.5054H203.423C203.423 44.4544 200.159 0.995361 155.867 0.995361H56.153Z" stroke="#263238" stroke-width="1.26" stroke-linecap="round" stroke-linejoin="round"/>
<path fill-rule="evenodd" clip-rule="evenodd" d="M197.378 85.2485L195.385 87.5395H9.07601L7.08301 85.2485H197.378Z" fill="#263238"/>
<path fill-rule="evenodd" clip-rule="evenodd" d="M197.378 85.2485L195.385 87.5395H9.07601L7.08301 85.2485H197.378Z" stroke="#263238" stroke-width="1.26" stroke-linecap="round" stroke-linejoin="round"/>
<path fill-rule="evenodd" clip-rule="evenodd" d="M190.504 71.505C189.292 71.505 188.278 70.575 188.185 69.367C188.053 67.64 187.804 66.116 187.433 64.758C186.734 62.198 185.604 60.163 183.978 58.537C182.353 56.912 180.318 55.782 177.758 55.083C175.624 54.5 173.08 54.217 169.982 54.217C166.884 54.217 164.341 54.5 162.207 55.083C159.647 55.782 157.612 56.912 155.986 58.537C154.361 60.163 153.231 62.198 152.532 64.758C152.161 66.116 151.911 67.64 151.779 69.367C151.687 70.575 150.672 71.505 149.461 71.505H58.638C57.427 71.505 56.412 70.575 56.32 69.367C56.187 67.64 55.938 66.116 55.567 64.758C54.868 62.198 53.738 60.163 52.112 58.537C50.487 56.912 48.452 55.782 45.892 55.083C43.758 54.5 41.214 54.217 38.116 54.217C35.019 54.217 32.475 54.5 30.341 55.083C27.781 55.782 25.746 56.912 24.12 58.537C22.495 60.163 21.365 62.198 20.666 64.758C20.295 66.116 20.046 67.64 19.913 69.367C19.821 70.575 18.806 71.505 17.595 71.505H0.927979C0.927979 73.601 2.62698 75.301 4.72398 75.301H199.627C201.723 75.301 203.423 73.601 203.423 71.505H190.504Z" fill="white"/>
<path fill-rule="evenodd" clip-rule="evenodd" d="M190.504 71.505C189.292 71.505 188.278 70.575 188.185 69.367C188.053 67.64 187.804 66.116 187.433 64.758C186.734 62.198 185.604 60.163 183.978 58.537C182.353 56.912 180.318 55.782 177.758 55.083C175.624 54.5 173.08 54.217 169.982 54.217C166.884 54.217 164.341 54.5 162.207 55.083C159.647 55.782 157.612 56.912 155.986 58.537C154.361 60.163 153.231 62.198 152.532 64.758C152.161 66.116 151.911 67.64 151.779 69.367C151.687 70.575 150.672 71.505 149.461 71.505H58.638C57.427 71.505 56.412 70.575 56.32 69.367C56.187 67.64 55.938 66.116 55.567 64.758C54.868 62.198 53.738 60.163 52.112 58.537C50.487 56.912 48.452 55.782 45.892 55.083C43.758 54.5 41.214 54.217 38.116 54.217C35.019 54.217 32.475 54.5 30.341 55.083C27.781 55.782 25.746 56.912 24.12 58.537C22.495 60.163 21.365 62.198 20.666 64.758C20.295 66.116 20.046 67.64 19.913 69.367C19.821 70.575 18.806 71.505 17.595 71.505H0.927979C0.927979 73.601 2.62698 75.301 4.72398 75.301H199.627C201.723 75.301 203.423 73.601 203.423 71.505H190.504Z" stroke="#263238" stroke-width="1.26" stroke-linecap="round" stroke-linejoin="round"/>
<path fill-rule="evenodd" clip-rule="evenodd" d="M169.982 58.4185C180.562 58.4185 184.097 61.9535 184.097 72.5335C184.097 83.1135 180.562 86.6485 169.982 86.6485C168.308 86.6485 166.811 86.5605 165.476 86.3695C158.372 85.3545 155.867 81.4395 155.867 72.5335C155.867 61.9535 159.402 58.4185 169.982 58.4185Z" fill="#263238"/>
<path fill-rule="evenodd" clip-rule="evenodd" d="M169.982 58.4185C180.562 58.4185 184.097 61.9535 184.097 72.5335C184.097 83.1135 180.562 86.6485 169.982 86.6485C168.308 86.6485 166.811 86.5605 165.476 86.3695C158.372 85.3545 155.867 81.4395 155.867 72.5335C155.867 61.9535 159.402 58.4185 169.982 58.4185Z" stroke="#263238" stroke-width="1.26" stroke-linecap="round" stroke-linejoin="round"/>
<path fill-rule="evenodd" clip-rule="evenodd" d="M169.982 66.3762C174.597 66.3762 176.139 67.9182 176.139 72.5332C176.139 77.1482 174.597 78.6912 169.982 78.6912C169.252 78.6912 168.599 78.6522 168.016 78.5692C164.918 78.1262 163.825 76.4182 163.825 72.5332C163.825 67.9182 165.367 66.3762 169.982 66.3762Z" fill="white"/>
<path fill-rule="evenodd" clip-rule="evenodd" d="M169.982 66.3762C174.597 66.3762 176.139 67.9182 176.139 72.5332C176.139 77.1482 174.597 78.6912 169.982 78.6912C169.252 78.6912 168.599 78.6522 168.016 78.5692C164.918 78.1262 163.825 76.4182 163.825 72.5332C163.825 67.9182 165.367 66.3762 169.982 66.3762Z" stroke="#263238" stroke-width="1.26" stroke-linecap="round" stroke-linejoin="round"/>
<path fill-rule="evenodd" clip-rule="evenodd" d="M38.1162 58.4185C48.6962 58.4185 52.2312 61.9535 52.2312 72.5335C52.2312 83.1135 48.6962 86.6485 38.1162 86.6485C36.4422 86.6485 34.9452 86.5605 33.6102 86.3695C26.5062 85.3545 24.0012 81.4395 24.0012 72.5335C24.0012 61.9535 27.5362 58.4185 38.1162 58.4185Z" fill="#263238"/>
<path fill-rule="evenodd" clip-rule="evenodd" d="M38.1162 58.4185C48.6962 58.4185 52.2312 61.9535 52.2312 72.5335C52.2312 83.1135 48.6962 86.6485 38.1162 86.6485C36.4422 86.6485 34.9452 86.5605 33.6102 86.3695C26.5062 85.3545 24.0012 81.4395 24.0012 72.5335C24.0012 61.9535 27.5362 58.4185 38.1162 58.4185Z" stroke="#263238" stroke-width="1.26" stroke-linecap="round" stroke-linejoin="round"/>
<path fill-rule="evenodd" clip-rule="evenodd" d="M38.1162 66.3762C42.7312 66.3762 44.2732 67.9182 44.2732 72.5332C44.2732 77.1482 42.7312 78.6912 38.1162 78.6912C37.3862 78.6912 36.7332 78.6522 36.1502 78.5692C33.0522 78.1262 31.9592 76.4182 31.9592 72.5332C31.9592 67.9182 33.5012 66.3762 38.1162 66.3762Z" fill="white"/>
<path fill-rule="evenodd" clip-rule="evenodd" d="M38.1162 66.3762C42.7312 66.3762 44.2732 67.9182 44.2732 72.5332C44.2732 77.1482 42.7312 78.6912 38.1162 78.6912C37.3862 78.6912 36.7332 78.6522 36.1502 78.5692C33.0522 78.1262 31.9592 76.4182 31.9592 72.5332C31.9592 67.9182 33.5012 66.3762 38.1162 66.3762Z" stroke="#263238" stroke-width="1.26" stroke-linecap="round" stroke-linejoin="round"/>
<path fill-rule="evenodd" clip-rule="evenodd" d="M65.1365 36.2504H103.07V11.5784H65.1365V36.2504Z" fill="white"/>
<path fill-rule="evenodd" clip-rule="evenodd" d="M65.1365 36.2504H103.07V11.5784H65.1365V36.2504Z" stroke="#263238" stroke-width="1.26" stroke-linecap="round" stroke-linejoin="round"/>
<path fill-rule="evenodd" clip-rule="evenodd" d="M106.211 36.2504H143.305V11.5784H106.211V36.2504Z" fill="white"/>
<path fill-rule="evenodd" clip-rule="evenodd" d="M106.211 36.2504H143.305V11.5784H106.211V36.2504Z" stroke="#263238" stroke-width="1.26" stroke-linecap="round" stroke-linejoin="round"/>
<path fill-rule="evenodd" clip-rule="evenodd" d="M12.3528 36.2501H61.9948V11.5781H32.4368C32.4368 11.5781 25.4548 13.6881 12.3528 36.2501Z" fill="white"/>
<path fill-rule="evenodd" clip-rule="evenodd" d="M12.3528 36.2501H61.9948V11.5781H32.4368C32.4368 11.5781 25.4548 13.6881 12.3528 36.2501Z" stroke="#263238" stroke-width="1.26" stroke-linecap="round" stroke-linejoin="round"/>
<path fill-rule="evenodd" clip-rule="evenodd" d="M103.07 36.2502V15.7822C94.9199 16.6842 92.0959 21.5622 92.0959 33.6052C92.0959 34.5292 92.1129 35.4092 92.1469 36.2502H103.07Z" fill="#263238"/>
<path fill-rule="evenodd" clip-rule="evenodd" d="M103.07 36.2502V15.7822C94.9199 16.6842 92.0959 21.5622 92.0959 33.6052C92.0959 34.5292 92.1129 35.4092 92.1469 36.2502H103.07Z" stroke="#263238" stroke-width="1.26" stroke-linecap="round" stroke-linejoin="round"/>
<path fill-rule="evenodd" clip-rule="evenodd" d="M103.07 48.0845H93.53C93.95 45.0425 96.224 43.9875 101.837 43.9875C102.268 43.9875 102.678 43.9945 103.07 44.0065V48.0845Z" stroke="#263238" stroke-width="1.26" stroke-linecap="round" stroke-linejoin="round"/>
<path fill-rule="evenodd" clip-rule="evenodd" d="M61.9201 48.0845H52.3801C52.8001 45.0425 55.0741 43.9875 60.6871 43.9875C61.1181 43.9875 61.5281 43.9945 61.9201 44.0065V48.0845Z" stroke="#263238" stroke-width="1.26" stroke-linecap="round" stroke-linejoin="round"/>
<path fill-rule="evenodd" clip-rule="evenodd" d="M143.305 48.0845H133.765C134.185 45.0425 136.459 43.9875 142.072 43.9875C142.503 43.9875 142.913 43.9945 143.305 44.0065V48.0845Z" stroke="#263238" stroke-width="1.26" stroke-linecap="round" stroke-linejoin="round"/>
<path fill-rule="evenodd" clip-rule="evenodd" d="M61.92 36.2502V15.7822C53.77 16.6842 50.946 21.5622 50.946 33.6052C50.946 34.5292 50.963 35.4092 50.997 36.2502H61.92Z" fill="#263238"/>
<path fill-rule="evenodd" clip-rule="evenodd" d="M61.92 36.2502V15.7822C53.77 16.6842 50.946 21.5622 50.946 33.6052C50.946 34.5292 50.963 35.4092 50.997 36.2502H61.92Z" stroke="#263238" stroke-width="1.26" stroke-linecap="round" stroke-linejoin="round"/>
<path fill-rule="evenodd" clip-rule="evenodd" d="M143.305 36.2502V15.7822C135.155 16.6842 132.331 21.5622 132.331 33.6052C132.331 34.5292 132.348 35.4092 132.382 36.2502H143.305Z" fill="#263238"/>
<path fill-rule="evenodd" clip-rule="evenodd" d="M143.305 36.2502V15.7822C135.155 16.6842 132.331 21.5622 132.331 33.6052C132.331 34.5292 132.348 35.4092 132.382 36.2502H143.305Z" stroke="#263238" stroke-width="1.26" stroke-linecap="round" stroke-linejoin="round"/>
<path fill-rule="evenodd" clip-rule="evenodd" d="M146.446 36.2501H172.595C172.595 36.0651 172.594 35.8821 172.592 35.7001C172.415 22.3001 161.389 11.5781 147.988 11.5781H146.446V36.2501Z" fill="white"/>
<path fill-rule="evenodd" clip-rule="evenodd" d="M146.446 36.2501H172.595C172.595 36.0651 172.594 35.8821 172.592 35.7001C172.415 22.3001 161.389 11.5781 147.988 11.5781H146.446V36.2501Z" stroke="#263238" stroke-width="1.26" stroke-linecap="round" stroke-linejoin="round"/>
<path fill-rule="evenodd" clip-rule="evenodd" d="M202.681 54.2168L201.14 43.9878C201.068 43.9878 200.997 43.9888 200.925 43.9898C195.684 44.0588 191.49 48.3718 191.49 53.6138V54.2168H202.681Z" fill="#263238"/>
<path fill-rule="evenodd" clip-rule="evenodd" d="M202.681 54.2168L201.14 43.9878C201.068 43.9878 200.997 43.9888 200.925 43.9898C195.684 44.0588 191.49 48.3718 191.49 53.6138V54.2168H202.681Z" stroke="#263238" stroke-width="1.26" stroke-linecap="round" stroke-linejoin="round"/>
<path fill-rule="evenodd" clip-rule="evenodd" d="M15.2844 43.988C15.2844 46.46 17.0284 48.524 19.3524 49.018C20.0394 47.69 20.4284 46.184 20.4284 44.591V43.988H15.2844Z" fill="#263238"/>
<path fill-rule="evenodd" clip-rule="evenodd" d="M15.2844 43.988C15.2844 46.46 17.0284 48.524 19.3524 49.018C20.0394 47.69 20.4284 46.184 20.4284 44.591V43.988H15.2844Z" stroke="#263238" stroke-width="1.26" stroke-linecap="round" stroke-linejoin="round"/>
<path d="M9.23682 43.988H15.2848" stroke="#263238" stroke-width="1.26" stroke-linecap="round" stroke-linejoin="round"/>
<path d="M19.3528 49.0183C17.7808 52.0613 14.6408 54.1673 10.9928 54.2153C10.9208 54.2163 10.8498 54.2163 10.7768 54.2163H4.35083" stroke="#263238" stroke-width="1.26" stroke-linecap="round" stroke-linejoin="round"/>
<path d="M15.2844 43.988C15.2844 46.46 17.0284 48.524 19.3524 49.018" stroke="#263238" stroke-width="1.26" stroke-linecap="round" stroke-linejoin="round"/>
</svg>
