<svg width="191" height="86" viewBox="0 0 191 86" fill="none" xmlns="http://www.w3.org/2000/svg">
<path fill-rule="evenodd" clip-rule="evenodd" d="M136.474 29.7598C136.474 29.7598 120.511 29.7198 101.33 29.7098V6.72378C107.055 6.50979 113.318 6.47779 120.029 6.50479C134.337 6.56279 139.528 9.94778 141.832 18.5338C143.953 26.4378 143.633 29.7388 136.474 29.7598ZM56.8385 29.7708C63.0635 15.4498 71.5845 11.4748 79.4275 9.36178C83.5895 8.23979 88.5405 7.54379 94.1595 7.11778V29.7078C81.2435 29.7068 67.6205 29.7208 56.8385 29.7708ZM178.737 29.7708C165.788 2.61878 151.96 1.77979 120.029 1.77979C104.41 1.77979 92.4795 2.20879 83.1165 3.97379L83.1235 3.94679C77.8255 4.80579 68.0505 2.54279 68.0505 2.54279V8.69979L69.0335 8.65979C64.4205 11.1628 60.7025 14.5428 57.5205 19.0958C47.9275 32.8258 50.9145 26.7178 26.5255 31.9178C7.05153 36.0708 8.34053 39.2208 6.62253 51.6788C2.75653 53.1108 0.894531 55.5448 0.894531 62.1318C0.894531 68.7178 1.61053 73.1568 12.3495 73.1568H173.009C189.333 73.1568 189.619 71.5818 189.619 48.3848C189.619 32.6348 178.737 29.7708 178.737 29.7708Z" fill="#263238"/>
<path d="M136.474 29.7598L136.472 30.5623L136.476 30.5623L136.474 29.7598ZM101.33 29.7098H100.527C100.527 30.1528 100.886 30.5121 101.329 30.5123L101.33 29.7098ZM101.33 6.72378L101.3 5.92184C100.868 5.93796 100.527 6.29224 100.527 6.72378H101.33ZM120.029 6.50479L120.032 5.70229L120.032 5.70229L120.029 6.50479ZM141.832 18.5338L141.056 18.7418L141.832 18.5338ZM56.8385 29.7708L56.1026 29.4509C55.9945 29.6995 56.0193 29.986 56.1685 30.2124C56.3177 30.4388 56.5711 30.5745 56.8423 30.5733L56.8385 29.7708ZM79.4275 9.36178L79.6363 10.1367L79.6364 10.1366L79.4275 9.36178ZM94.1595 7.11778H94.962C94.962 6.89441 94.8689 6.68114 94.7051 6.52927C94.5413 6.37741 94.3216 6.30069 94.0989 6.31758L94.1595 7.11778ZM94.1595 29.7078L94.1595 30.5103C94.3723 30.5103 94.5765 30.4258 94.727 30.2753C94.8775 30.1248 94.962 29.9206 94.962 29.7078H94.1595ZM178.737 29.7708L178.012 30.1162C178.114 30.3293 178.304 30.4868 178.532 30.5469L178.737 29.7708ZM83.1165 3.97379L82.3397 3.77249C82.2708 4.03844 82.3427 4.32116 82.5303 4.52185C82.718 4.72253 82.9952 4.81329 83.2652 4.7624L83.1165 3.97379ZM83.1235 3.94679L83.9004 4.14808C83.9684 3.88566 83.8993 3.60664 83.7167 3.40626C83.5341 3.20589 83.2627 3.11124 82.9951 3.15463L83.1235 3.94679ZM68.0505 2.54279L68.2315 1.76096C67.9932 1.70578 67.7427 1.76235 67.5512 1.91459C67.3596 2.06683 67.248 2.29813 67.248 2.54279H68.0505ZM68.0505 8.69979H67.248C67.248 8.91828 67.3371 9.12733 67.4947 9.27866C67.6523 9.42999 67.8648 9.51051 68.0832 9.50162L68.0505 8.69979ZM69.0335 8.65979L69.4163 9.36514C69.7443 9.18713 69.9064 8.80642 69.8072 8.44658C69.708 8.08674 69.3739 7.84277 69.0009 7.85795L69.0335 8.65979ZM57.5205 19.0958L56.8628 18.6361L56.8627 18.6362L57.5205 19.0958ZM26.5255 31.9178L26.3582 31.1329L26.3582 31.1329L26.5255 31.9178ZM6.62253 51.6788L6.90128 52.4313C7.1787 52.3286 7.37709 52.0815 7.41751 51.7884L6.62253 51.6788ZM136.474 29.7598C136.476 28.9573 136.475 28.9573 136.475 28.9573C136.475 28.9573 136.475 28.9573 136.475 28.9573C136.474 28.9573 136.474 28.9573 136.473 28.9573C136.471 28.9573 136.468 28.9573 136.464 28.9573C136.456 28.9572 136.445 28.9572 136.429 28.9572C136.398 28.9571 136.352 28.957 136.292 28.9568C136.17 28.9565 135.989 28.9561 135.752 28.9555C135.278 28.9544 134.58 28.9528 133.681 28.9509C131.885 28.947 129.29 28.9417 126.096 28.936C119.707 28.9248 110.921 28.9123 101.33 28.9073L101.329 30.5123C110.919 30.5173 119.705 30.5298 126.093 30.541C129.287 30.5467 131.882 30.552 133.678 30.5559C134.576 30.5578 135.274 30.5594 135.748 30.5605C135.985 30.5611 136.166 30.5615 136.288 30.5618C136.348 30.562 136.394 30.5621 136.425 30.5622C136.441 30.5622 136.452 30.5622 136.46 30.5623C136.464 30.5623 136.467 30.5623 136.469 30.5623C136.47 30.5623 136.47 30.5623 136.471 30.5623C136.471 30.5623 136.471 30.5623 136.471 30.5623C136.471 30.5623 136.472 30.5623 136.474 29.7598ZM102.132 29.7098V6.72378H100.527V29.7098H102.132ZM101.36 7.52572C107.067 7.31236 113.317 7.28029 120.025 7.30728L120.032 5.70229C113.318 5.67528 107.042 5.70721 101.3 5.92184L101.36 7.52572ZM120.025 7.30728C127.146 7.33614 131.846 8.19804 135.034 10.0182C138.165 11.8061 139.94 14.5818 141.056 18.7418L142.607 18.3258C141.419 13.8997 139.447 10.6899 135.829 8.6244C132.268 6.59103 127.219 5.73143 120.032 5.70229L120.025 7.30728ZM141.056 18.7418C141.584 20.7069 141.949 22.3479 142.098 23.7072C142.249 25.0745 142.171 26.0782 141.885 26.8108C141.614 27.5037 141.133 28.0144 140.309 28.3723C139.451 28.7451 138.215 28.9522 136.471 28.9573L136.476 30.5623C138.312 30.5569 139.8 30.3434 140.949 29.8444C142.132 29.3304 142.941 28.5179 143.38 27.3951C143.803 26.3117 143.856 25.0069 143.694 23.5316C143.53 22.0483 143.14 20.3126 142.607 18.3258L141.056 18.7418ZM57.5745 30.0907C60.6427 23.0322 64.2536 18.573 68.0213 15.6199C71.7918 12.6646 75.768 11.1788 79.6363 10.1367L79.2188 8.58691C75.2441 9.65774 71.0383 11.216 67.0312 14.3567C63.0214 17.4996 59.2594 22.1883 56.1026 29.4509L57.5745 30.0907ZM79.6364 10.1366C83.7304 9.03297 88.626 8.34211 94.2202 7.91799L94.0989 6.31758C88.4551 6.74546 83.4487 7.4466 79.2187 8.58695L79.6364 10.1366ZM93.357 7.11778V29.7078H94.962V7.11778H93.357ZM94.1596 28.9053C81.2433 28.9043 67.6188 28.9183 56.8348 28.9683L56.8423 30.5733C67.6223 30.5233 81.2438 30.5093 94.1595 30.5103L94.1596 28.9053ZM179.461 29.4253C172.937 15.7466 166.121 8.55328 156.797 4.84753C147.559 1.17562 135.949 0.977285 120.029 0.977285V2.58229C136.039 2.58229 147.309 2.80344 156.204 6.33904C165.015 9.84079 171.587 16.643 178.012 30.1162L179.461 29.4253ZM120.029 0.977285C104.411 0.977285 92.4128 1.40473 82.9679 3.18517L83.2652 4.7624C92.5463 3.01284 104.408 2.58229 120.029 2.58229V0.977285ZM83.8934 4.17508L83.9004 4.14808L82.3467 3.74549L82.3397 3.77249L83.8934 4.17508ZM82.9951 3.15463C80.4804 3.56236 76.8217 3.23113 73.7174 2.77301C72.1808 2.54624 70.8069 2.29273 69.8172 2.09587C69.3226 1.9975 68.9246 1.91341 68.651 1.85407C68.5142 1.82441 68.4085 1.80094 68.3374 1.78498C68.3019 1.777 68.275 1.7709 68.2572 1.76685C68.2483 1.76482 68.2417 1.7633 68.2374 1.76231C68.2352 1.76182 68.2337 1.76146 68.2327 1.76123C68.2322 1.76112 68.2319 1.76104 68.2317 1.76099C68.2316 1.76097 68.2315 1.76096 68.2315 1.76095C68.2315 1.76095 68.2315 1.76096 68.0505 2.54279C67.8695 3.32461 67.8696 3.32463 67.8698 3.32467C67.8699 3.32469 67.8701 3.32474 67.8703 3.32478C67.8707 3.32487 67.8712 3.325 67.8719 3.32516C67.8733 3.32548 67.8753 3.32594 67.8779 3.32653C67.883 3.32771 67.8905 3.32943 67.9003 3.33166C67.9198 3.33611 67.9484 3.34261 67.9858 3.351C68.0605 3.36777 68.17 3.39208 68.3108 3.42262C68.5925 3.48369 68.9995 3.56968 69.5041 3.67004C70.5128 3.87066 71.9137 4.12921 73.4831 4.36081C76.5909 4.81944 80.4687 5.19021 83.252 4.73894L82.9951 3.15463ZM67.248 2.54279V8.69979H68.853V2.54279H67.248ZM68.0832 9.50162L69.0662 9.46162L69.0009 7.85795L68.0179 7.89795L68.0832 9.50162ZM68.6508 7.95443C63.9209 10.5208 60.1112 13.988 56.8628 18.6361L58.1783 19.5555C61.2939 15.0975 64.9201 11.8047 69.4163 9.36514L68.6508 7.95443ZM56.8627 18.6362C54.4554 22.0816 52.8844 24.2115 51.4949 25.5908C50.148 26.9278 48.9903 27.5402 47.3845 27.9251C45.6978 28.3295 43.5773 28.4741 40.2184 28.854C36.8988 29.2294 32.4861 29.8264 26.3582 31.1329L26.6929 32.7026C32.7594 31.4092 37.1193 30.8197 40.3988 30.4488C43.639 30.0823 45.9443 29.9209 47.7586 29.4859C49.6538 29.0316 51.0723 28.2717 52.6256 26.7299C54.1362 25.2304 55.7892 22.9749 58.1784 19.5554L56.8627 18.6362ZM26.3582 31.1329C21.477 32.1739 17.8509 33.161 15.1397 34.2621C12.4226 35.3655 10.5711 36.6043 9.29268 38.1779C8.01304 39.7529 7.36913 41.5884 6.9319 43.7611C6.50058 45.9045 6.25013 48.5048 5.82756 51.5692L7.41751 51.7884C7.85393 48.6237 8.08661 46.1586 8.50535 44.0777C8.91819 42.0263 9.49127 40.4788 10.5384 39.1899C11.5867 37.8996 13.1717 36.7936 15.7436 35.7491C18.3215 34.7022 21.8371 33.7382 26.6929 32.7026L26.3582 31.1329ZM6.34379 50.9263C4.30516 51.6814 2.6908 52.7422 1.6173 54.5649C0.561944 56.3568 0.0920312 58.7813 0.0920312 62.1318H1.69703C1.69703 58.8953 2.15812 56.8093 3.00026 55.3794C3.82427 53.9804 5.0739 53.1082 6.90128 52.4313L6.34379 50.9263ZM0.0920312 62.1318C0.0920312 65.3824 0.245774 68.4269 1.9643 70.6104C3.72257 72.8444 6.915 73.9593 12.3495 73.9593V72.3543C7.04506 72.3543 4.50999 71.2497 3.22552 69.6177C1.90129 67.9352 1.69703 65.4671 1.69703 62.1318H0.0920312ZM12.3495 73.9593H173.009V72.3543H12.3495V73.9593ZM173.009 73.9593C177.078 73.9593 180.242 73.8637 182.663 73.3321C185.123 72.7916 186.906 71.7805 188.111 69.9029C189.279 68.0815 189.835 65.5414 190.119 62.1078C190.404 58.658 190.421 54.1734 190.421 48.3848H188.816C188.816 54.1946 188.798 58.6058 188.519 61.9755C188.239 65.3614 187.703 67.5644 186.76 69.0365C185.852 70.4522 184.503 71.2847 182.318 71.7644C180.094 72.253 177.101 72.3543 173.009 72.3543V73.9593ZM190.421 48.3848C190.421 40.3024 187.62 35.4409 184.741 32.6003C183.311 31.1891 181.879 30.2929 180.798 29.7479C180.258 29.4752 179.804 29.2897 179.48 29.1711C179.318 29.1118 179.189 29.0691 179.097 29.0406C179.052 29.0263 179.015 29.0156 178.989 29.008C178.976 29.0043 178.965 29.0013 178.957 28.9991C178.953 28.998 178.95 28.9971 178.947 28.9963C178.946 28.996 178.944 28.9957 178.943 28.9954C178.943 28.9953 178.942 28.9951 178.942 28.995C178.941 28.9949 178.941 28.9947 178.737 29.7708C178.532 30.5469 178.532 30.5467 178.531 30.5466C178.531 30.5466 178.531 30.5465 178.531 30.5464C178.53 30.5463 178.53 30.5463 178.53 30.5463C178.53 30.5463 178.531 30.5464 178.532 30.5468C178.534 30.5474 178.539 30.5488 178.547 30.5509C178.562 30.5552 178.586 30.5625 178.62 30.573C178.688 30.5941 178.792 30.6283 178.928 30.6781C179.199 30.7776 179.596 30.939 180.075 31.1809C181.035 31.665 182.323 32.4692 183.614 33.7427C186.176 36.2717 188.816 40.7172 188.816 48.3848H190.421Z" fill="white"/>
<path fill-rule="evenodd" clip-rule="evenodd" d="M183.112 82.0195L180.939 84.5165H14.8178L12.6448 82.0195H183.112Z" fill="#263238"/>
<path fill-rule="evenodd" clip-rule="evenodd" d="M183.112 82.0195L180.939 84.5165H14.8178L12.6448 82.0195H183.112Z" stroke="#263238" stroke-width="1.374" stroke-linecap="round" stroke-linejoin="round"/>
<path fill-rule="evenodd" clip-rule="evenodd" d="M139.888 74.0973C139.947 74.0973 139.947 74.1883 139.888 74.1883C139.829 74.1883 139.829 74.0973 139.888 74.0973Z" fill="#019147"/>
<path fill-rule="evenodd" clip-rule="evenodd" d="M15.1155 45.8469C14.6155 49.0359 12.9255 51.4199 11.3415 51.1719C9.7565 50.9229 8.8765 48.1369 9.3765 44.9479C9.8765 41.7589 11.5655 39.3749 13.1505 39.6229C14.7355 39.8709 15.6155 42.6579 15.1155 45.8469Z" fill="white"/>
<path fill-rule="evenodd" clip-rule="evenodd" d="M15.1155 45.8469C14.6155 49.0359 12.9255 51.4199 11.3415 51.1719C9.7565 50.9229 8.8765 48.1369 9.3765 44.9479C9.8765 41.7589 11.5655 39.3749 13.1505 39.6229C14.7355 39.8709 15.6155 42.6579 15.1155 45.8469Z" stroke="#263238" stroke-width="1.374" stroke-linecap="round" stroke-linejoin="round"/>
<path fill-rule="evenodd" clip-rule="evenodd" d="M90.0517 36.5799H101.397V35.3379H90.0517C89.7087 35.3379 89.4307 35.6159 89.4307 35.9589C89.4307 36.3019 89.7087 36.5799 90.0517 36.5799Z" fill="white"/>
<path fill-rule="evenodd" clip-rule="evenodd" d="M90.0517 36.5799H101.397V35.3379H90.0517C89.7087 35.3379 89.4307 35.6159 89.4307 35.9589C89.4307 36.3019 89.7087 36.5799 90.0517 36.5799Z" stroke="white" stroke-width="1.374" stroke-linecap="round" stroke-linejoin="round"/>
<path fill-rule="evenodd" clip-rule="evenodd" d="M131.147 36.5799H142.492V35.3379H131.147C130.804 35.3379 130.526 35.6159 130.526 35.9589C130.526 36.3019 130.804 36.5799 131.147 36.5799Z" fill="white"/>
<path fill-rule="evenodd" clip-rule="evenodd" d="M131.147 36.5799H142.492V35.3379H131.147C130.804 35.3379 130.526 35.6159 130.526 35.9589C130.526 36.3019 130.804 36.5799 131.147 36.5799Z" stroke="white" stroke-width="1.374" stroke-linecap="round" stroke-linejoin="round"/>
<path fill-rule="evenodd" clip-rule="evenodd" d="M133.114 16.27C129.755 16.27 127.954 17.874 127.954 22.676V27.623H137.389C140.901 27.623 141.116 25.814 140.308 21.913C139.221 16.666 136.602 16.27 133.114 16.27Z" fill="#263238"/>
<path fill-rule="evenodd" clip-rule="evenodd" d="M133.114 16.27C129.755 16.27 127.954 17.874 127.954 22.676V27.623H137.389C140.901 27.623 141.116 25.814 140.308 21.913C139.221 16.666 136.602 16.27 133.114 16.27Z" stroke="#263238" stroke-width="1.374" stroke-linecap="round" stroke-linejoin="round"/>
<path fill-rule="evenodd" clip-rule="evenodd" d="M179.529 73.1089C182.128 73.1089 185.331 72.2409 187.468 69.3669H168.467C168.466 69.3819 168.466 69.0909 168.465 69.1069C168.476 68.6979 168.481 68.5859 168.481 68.1579C168.481 61.2129 167.139 56.7739 164.129 53.7639C161.118 50.7539 156.679 49.4109 149.734 49.4109C142.789 49.4109 138.35 50.7539 135.34 53.7639C132.329 56.7739 130.987 61.2129 130.987 68.1579C130.987 68.5759 130.993 68.9519 131.003 69.3519C131.002 69.3469 131.002 69.3719 131.002 69.3669H58.859C58.859 69.3819 58.874 68.5859 58.874 68.1579C58.874 61.2129 57.531 56.7739 54.521 53.7639C51.511 50.7539 47.071 49.4109 40.126 49.4109C33.182 49.4109 28.742 50.7539 25.732 53.7639C22.722 56.7739 21.379 61.2129 21.379 68.1579C21.379 68.5759 21.385 68.8299 21.395 69.2299C21.395 69.2249 21.395 69.3719 21.394 69.3669H4.89597L2.11597 69.3969C3.48997 72.0879 6.41097 73.1089 8.98697 73.1089H25.049C24.837 71.6439 24.738 69.9989 24.738 68.1579C24.738 56.6239 28.593 52.7699 40.126 52.7699C51.66 52.7699 55.515 56.6239 55.515 68.1579C55.515 69.9989 55.416 71.6439 55.204 73.1089H134.657C134.445 71.6439 134.346 69.9989 134.346 68.1579C134.346 56.6239 138.2 52.7699 149.734 52.7699C161.268 52.7699 165.122 56.6239 165.122 68.1579C165.122 69.9989 165.024 71.6439 164.812 73.1089H179.529Z" fill="white"/>
<path fill-rule="evenodd" clip-rule="evenodd" d="M179.529 73.1089C182.128 73.1089 185.331 72.2409 187.468 69.3669H168.467C168.466 69.3819 168.466 69.0909 168.465 69.1069C168.476 68.6979 168.481 68.5859 168.481 68.1579C168.481 61.2129 167.139 56.7739 164.129 53.7639C161.118 50.7539 156.679 49.4109 149.734 49.4109C142.789 49.4109 138.35 50.7539 135.34 53.7639C132.329 56.7739 130.987 61.2129 130.987 68.1579C130.987 68.5759 130.993 68.9519 131.003 69.3519C131.002 69.3469 131.002 69.3719 131.002 69.3669H58.859C58.859 69.3819 58.874 68.5859 58.874 68.1579C58.874 61.2129 57.531 56.7739 54.521 53.7639C51.511 50.7539 47.071 49.4109 40.126 49.4109C33.182 49.4109 28.742 50.7539 25.732 53.7639C22.722 56.7739 21.379 61.2129 21.379 68.1579C21.379 68.5759 21.385 68.8299 21.395 69.2299C21.395 69.2249 21.395 69.3719 21.394 69.3669H4.89597L2.11597 69.3969C3.48997 72.0879 6.41097 73.1089 8.98697 73.1089H25.049C24.837 71.6439 24.738 69.9989 24.738 68.1579C24.738 56.6239 28.593 52.7699 40.126 52.7699C51.66 52.7699 55.515 56.6239 55.515 68.1579C55.515 69.9989 55.416 71.6439 55.204 73.1089H134.657C134.445 71.6439 134.346 69.9989 134.346 68.1579C134.346 56.6239 138.2 52.7699 149.734 52.7699C161.268 52.7699 165.122 56.6239 165.122 68.1579C165.122 69.9989 165.024 71.6439 164.812 73.1089H179.529Z" stroke="white" stroke-width="1.374" stroke-linecap="round" stroke-linejoin="round"/>
<path fill-rule="evenodd" clip-rule="evenodd" d="M40.1263 52.7698C51.6603 52.7698 55.5143 56.6238 55.5143 68.1578C55.5143 79.6918 51.6603 83.5458 40.1263 83.5458C38.3013 83.5458 36.6693 83.4498 35.2133 83.2418C27.4693 82.1348 24.7383 77.8668 24.7383 68.1578C24.7383 56.6238 28.5923 52.7698 40.1263 52.7698Z" fill="#263238"/>
<path fill-rule="evenodd" clip-rule="evenodd" d="M40.1263 52.7698C51.6603 52.7698 55.5143 56.6238 55.5143 68.1578C55.5143 79.6918 51.6603 83.5458 40.1263 83.5458C38.3013 83.5458 36.6693 83.4498 35.2133 83.2418C27.4693 82.1348 24.7383 77.8668 24.7383 68.1578C24.7383 56.6238 28.5923 52.7698 40.1263 52.7698Z" stroke="#263238" stroke-width="1.374" stroke-linecap="round" stroke-linejoin="round"/>
<path fill-rule="evenodd" clip-rule="evenodd" d="M40.1263 61.4453C45.1573 61.4453 46.8393 63.1263 46.8393 68.1583C46.8393 73.1893 45.1573 74.8703 40.1263 74.8703C39.3303 74.8703 38.6183 74.8283 37.9833 74.7373C34.6053 74.2543 33.4133 72.3933 33.4133 68.1583C33.4133 63.1263 35.0953 61.4453 40.1263 61.4453Z" fill="white"/>
<path fill-rule="evenodd" clip-rule="evenodd" d="M40.1263 61.4453C45.1573 61.4453 46.8393 63.1263 46.8393 68.1583C46.8393 73.1893 45.1573 74.8703 40.1263 74.8703C39.3303 74.8703 38.6183 74.8283 37.9833 74.7373C34.6053 74.2543 33.4133 72.3933 33.4133 68.1583C33.4133 63.1263 35.0953 61.4453 40.1263 61.4453Z" stroke="#263238" stroke-width="1.374" stroke-linecap="round" stroke-linejoin="round"/>
<path fill-rule="evenodd" clip-rule="evenodd" d="M149.734 52.7698C161.268 52.7698 165.122 56.6238 165.122 68.1578C165.122 79.6918 161.268 83.5458 149.734 83.5458C147.909 83.5458 146.277 83.4498 144.821 83.2418C137.077 82.1348 134.346 77.8668 134.346 68.1578C134.346 56.6238 138.2 52.7698 149.734 52.7698Z" fill="#263238"/>
<path fill-rule="evenodd" clip-rule="evenodd" d="M149.734 52.7698C161.268 52.7698 165.122 56.6238 165.122 68.1578C165.122 79.6918 161.268 83.5458 149.734 83.5458C147.909 83.5458 146.277 83.4498 144.821 83.2418C137.077 82.1348 134.346 77.8668 134.346 68.1578C134.346 56.6238 138.2 52.7698 149.734 52.7698Z" stroke="#263238" stroke-width="1.374" stroke-linecap="round" stroke-linejoin="round"/>
<path fill-rule="evenodd" clip-rule="evenodd" d="M150.039 61.4453C155.07 61.4453 156.752 63.1263 156.752 68.1583C156.752 73.1893 155.07 74.8703 150.039 74.8703C149.243 74.8703 148.531 74.8283 147.896 74.7373C144.518 74.2543 143.326 72.3933 143.326 68.1583C143.326 63.1263 145.008 61.4453 150.039 61.4453Z" fill="white"/>
<path fill-rule="evenodd" clip-rule="evenodd" d="M150.039 61.4453C155.07 61.4453 156.752 63.1263 156.752 68.1583C156.752 73.1893 155.07 74.8703 150.039 74.8703C149.243 74.8703 148.531 74.8283 147.896 74.7373C144.518 74.2543 143.326 72.3933 143.326 68.1583C143.326 63.1263 145.008 61.4453 150.039 61.4453Z" stroke="#263238" stroke-width="1.374" stroke-linecap="round" stroke-linejoin="round"/>
</svg>
