<svg width="144" height="76" viewBox="0 0 144 76" fill="none" xmlns="http://www.w3.org/2000/svg">
<path fill-rule="evenodd" clip-rule="evenodd" d="M40.3556 60.3173C40.3556 48.6397 34.9855 44.7376 23.308 44.7376C11.6304 44.7376 6.67924 48.6397 6.67924 60.3173C6.67924 60.3742 6.6804 60.4287 6.6804 60.4856L1.00174 60.4902C5.71501 23.9955 45.3833 1 87.7099 1C136.089 1 141.183 35.1462 141.183 60.3858L134.333 60.3928C134.311 48.7929 128.599 44.9104 117.212 44.9104C105.818 44.9104 99.898 48.7976 99.8818 60.4148L40.3544 60.4624C40.3544 60.4136 40.3556 60.3661 40.3556 60.3173Z" fill="#263238"/>
<path fill-rule="evenodd" clip-rule="evenodd" d="M40.3556 60.3173C40.3556 48.6397 34.9855 44.7376 23.308 44.7376C11.6304 44.7376 6.67924 48.6397 6.67924 60.3173C6.67924 60.3742 6.6804 60.4287 6.6804 60.4856L1.00174 60.4902C5.71501 23.9955 45.3833 1 87.7099 1C136.089 1 141.183 35.1462 141.183 60.3858L134.333 60.3928C134.311 48.7929 128.599 44.9104 117.212 44.9104C105.818 44.9104 99.898 48.7976 99.8818 60.4148L40.3544 60.4624C40.3544 60.4136 40.3556 60.3661 40.3556 60.3173Z" stroke="#263238" stroke-width="1.8867" stroke-linecap="round" stroke-linejoin="round"/>
<path fill-rule="evenodd" clip-rule="evenodd" d="M141.238 60.3174C141.262 62.2052 139.739 63.7485 137.851 63.7485H4.34781C2.47736 63.7485 0.967773 62.2145 1.00026 60.3441L1.00142 60.3174" fill="white"/>
<path d="M141.238 60.3174V60.3174C141.262 62.2052 139.739 63.7485 137.851 63.7485H4.34781C2.47736 63.7485 0.967772 62.2145 1.00026 60.3441L1.00142 60.3174" stroke="#263238" stroke-width="1.8867" stroke-linecap="round" stroke-linejoin="round"/>
<path fill-rule="evenodd" clip-rule="evenodd" d="M117.212 48.2029C126.939 48.2029 130.189 51.453 130.189 61.18C130.189 70.9071 126.939 74.1572 117.212 74.1572C115.674 74.1572 114.296 74.076 113.07 73.8996C106.538 72.9667 104.235 69.3673 104.235 61.18C104.235 51.453 107.485 48.2029 117.212 48.2029Z" fill="#263238"/>
<path fill-rule="evenodd" clip-rule="evenodd" d="M117.212 48.2029C126.939 48.2029 130.189 51.453 130.189 61.18C130.189 70.9071 126.939 74.1572 117.212 74.1572C115.674 74.1572 114.296 74.076 113.07 73.8996C106.538 72.9667 104.235 69.3673 104.235 61.18C104.235 51.453 107.485 48.2029 117.212 48.2029Z" stroke="#263238" stroke-width="1.8867" stroke-linecap="round" stroke-linejoin="round"/>
<path fill-rule="evenodd" clip-rule="evenodd" d="M117.212 55.5193C121.455 55.5193 122.873 56.9372 122.873 61.1794C122.873 65.4227 121.455 66.8406 117.212 66.8406C116.541 66.8406 115.94 66.8058 115.405 66.7293C112.555 66.322 111.551 64.752 111.551 61.1794C111.551 56.9372 112.968 55.5193 117.212 55.5193Z" fill="white"/>
<path fill-rule="evenodd" clip-rule="evenodd" d="M117.212 55.5193C121.455 55.5193 122.873 56.9372 122.873 61.1794C122.873 65.4227 121.455 66.8406 117.212 66.8406C116.541 66.8406 115.94 66.8058 115.405 66.7293C112.555 66.322 111.551 64.752 111.551 61.1794C111.551 56.9372 112.968 55.5193 117.212 55.5193Z" stroke="#263238" stroke-width="1.2578" stroke-linecap="round" stroke-linejoin="round"/>
<path fill-rule="evenodd" clip-rule="evenodd" d="M23.308 48.2029C33.0351 48.2029 36.2852 51.453 36.2852 61.18C36.2852 70.9071 33.0351 74.1572 23.308 74.1572C21.7694 74.1572 20.3921 74.076 19.1656 73.8996C12.6341 72.9667 10.3308 69.3673 10.3308 61.18C10.3308 51.453 13.5809 48.2029 23.308 48.2029Z" fill="#263238"/>
<path fill-rule="evenodd" clip-rule="evenodd" d="M23.308 48.2029C33.0351 48.2029 36.2852 51.453 36.2852 61.18C36.2852 70.9071 33.0351 74.1572 23.308 74.1572C21.7694 74.1572 20.3921 74.076 19.1656 73.8996C12.6341 72.9667 10.3308 69.3673 10.3308 61.18C10.3308 51.453 13.5809 48.2029 23.308 48.2029Z" stroke="#263238" stroke-width="1.8867" stroke-linecap="round" stroke-linejoin="round"/>
<path fill-rule="evenodd" clip-rule="evenodd" d="M23.308 55.5193C27.5513 55.5193 28.9692 56.9372 28.9692 61.1794C28.9692 65.4227 27.5513 66.8406 23.308 66.8406C22.6373 66.8406 22.0363 66.8058 21.5013 66.7293C18.6516 66.322 17.6467 64.752 17.6467 61.1794C17.6467 56.9372 19.0646 55.5193 23.308 55.5193Z" fill="white"/>
<path fill-rule="evenodd" clip-rule="evenodd" d="M23.308 55.5193C27.5513 55.5193 28.9692 56.9372 28.9692 61.1794C28.9692 65.4227 27.5513 66.8406 23.308 66.8406C22.6373 66.8406 22.0363 66.8058 21.5013 66.7293C18.6516 66.322 17.6467 64.752 17.6467 61.1794C17.6467 56.9372 19.0646 55.5193 23.308 55.5193Z" stroke="#263238" stroke-width="1.2578" stroke-linecap="round" stroke-linejoin="round"/>
<path fill-rule="evenodd" clip-rule="evenodd" d="M83.6751 31.1653C83.7772 31.1653 83.8515 31.2651 83.8213 31.3625C83.4674 32.5206 82.5751 32.9464 80.8346 32.9464C79.0953 32.9464 78.203 32.5206 77.8479 31.3625C77.8178 31.2651 77.892 31.1653 77.9953 31.1653H83.6751Z" fill="white"/>
<path fill-rule="evenodd" clip-rule="evenodd" d="M83.6751 31.1653C83.7772 31.1653 83.8515 31.2651 83.8213 31.3625C83.4674 32.5206 82.5751 32.9464 80.8346 32.9464C79.0953 32.9464 78.203 32.5206 77.8479 31.3625C77.8178 31.2651 77.892 31.1653 77.9953 31.1653H83.6751Z" stroke="#263238" stroke-width="1.8867" stroke-linecap="round" stroke-linejoin="round"/>
<path fill-rule="evenodd" clip-rule="evenodd" d="M138.399 36.0201C133.657 36.0201 130.335 34.8598 129.368 31.7025C129.287 31.4356 129.49 31.1653 129.768 31.1653H137.3" fill="white"/>
<path d="M138.399 36.0201C133.657 36.0201 130.335 34.8598 129.368 31.7025C129.287 31.4356 129.49 31.1653 129.768 31.1653H137.3" stroke="#263238" stroke-width="1.8867" stroke-linecap="round" stroke-linejoin="round"/>
<path fill-rule="evenodd" clip-rule="evenodd" d="M136.089 71.9187L134.097 74.2092H7.70741L5.71512 71.9187H136.089Z" fill="#263238"/>
<path fill-rule="evenodd" clip-rule="evenodd" d="M136.089 71.9187L134.097 74.2092H7.70741L5.71511 71.9187H136.089Z" stroke="#263238" stroke-width="1.2578" stroke-linecap="round" stroke-linejoin="round"/>
<path fill-rule="evenodd" clip-rule="evenodd" d="M87.7102 4.86694V25.5127H25.8065C25.8065 25.5127 47.4177 5.00966 87.7102 4.86694Z" fill="white"/>
<path fill-rule="evenodd" clip-rule="evenodd" d="M87.7102 4.86694V25.5127H25.8065C25.8065 25.5127 47.4177 5.00966 87.7102 4.86694Z" stroke="#263238" stroke-width="1.8867" stroke-linecap="round" stroke-linejoin="round"/>
<path fill-rule="evenodd" clip-rule="evenodd" d="M122.82 16.0522C128.561 20.9721 130.188 25.5333 130.188 25.5333L122.82 25.5124V16.0522Z" fill="white"/>
<path fill-rule="evenodd" clip-rule="evenodd" d="M122.82 16.0522C128.561 20.9721 130.188 25.5333 130.188 25.5333L122.82 25.5124V16.0522Z" stroke="#263238" stroke-width="1.8867" stroke-linecap="round" stroke-linejoin="round"/>
<path fill-rule="evenodd" clip-rule="evenodd" d="M120.607 14.2816V25.5124H89.9224V4.87939C104.609 5.17876 114.361 9.60543 120.607 14.2816Z" fill="white"/>
<path fill-rule="evenodd" clip-rule="evenodd" d="M120.607 14.2816V25.5124H89.9224V4.87939C104.609 5.17876 114.361 9.60543 120.607 14.2816Z" stroke="#263238" stroke-width="1.8867" stroke-linecap="round" stroke-linejoin="round"/>
<path fill-rule="evenodd" clip-rule="evenodd" d="M10.3305 36.42L23.4863 36.4212C27.7273 36.4212 30.468 35.0044 30.468 30.7634H14.5227" fill="white"/>
<path d="M10.3305 36.42L23.4863 36.4212C27.7273 36.4212 30.468 35.0044 30.468 30.7634H14.5227" stroke="#263238" stroke-width="1.8867" stroke-linecap="round" stroke-linejoin="round"/>
<path d="M24.8568 30.8408V36.2921" stroke="#263238" stroke-width="1.8867" stroke-linecap="round" stroke-linejoin="round"/>
<path fill-rule="evenodd" clip-rule="evenodd" d="M133.108 50.063C133.108 46.3558 134.347 45.1177 138.054 45.1177C141.761 45.1177 143 46.3558 143 50.063V51.9613H133.108V50.063Z" fill="#263238"/>
<path fill-rule="evenodd" clip-rule="evenodd" d="M133.108 50.063C133.108 46.3558 134.347 45.1177 138.054 45.1177C141.761 45.1177 143 46.3558 143 50.063V51.9613H133.108V50.063Z" stroke="#263238" stroke-width="1.2578" stroke-linecap="round" stroke-linejoin="round"/>
</svg>
