<svg width="174" height="82" viewBox="0 0 174 82" fill="none" xmlns="http://www.w3.org/2000/svg">
<path fill-rule="evenodd" clip-rule="evenodd" d="M68.673 1.67603C61.322 1.67603 58.865 3.09703 58.865 7.34903C58.865 11.601 61.322 13.022 68.673 13.022C69.836 13.022 70.876 12.987 71.804 12.91C76.74 12.502 78.481 10.929 78.481 7.34903C78.481 3.09703 76.024 1.67603 68.673 1.67603Z" fill="white"/>
<path fill-rule="evenodd" clip-rule="evenodd" d="M68.673 1.67603C61.322 1.67603 58.865 3.09703 58.865 7.34903C58.865 11.601 61.322 13.022 68.673 13.022C69.836 13.022 70.876 12.987 71.804 12.91C76.74 12.502 78.481 10.929 78.481 7.34903C78.481 3.09703 76.024 1.67603 68.673 1.67603Z" stroke="#263238" stroke-width="1.263" stroke-linecap="round" stroke-linejoin="round"/>
<path fill-rule="evenodd" clip-rule="evenodd" d="M173.122 66.7308L0.812317 66.6258C0.740311 41.1198 7.46532 7.11084 68.6733 7.11084C122.223 7.11084 173.122 29.7988 173.122 66.7308Z" fill="#FF9D00"/>
<path fill-rule="evenodd" clip-rule="evenodd" d="M173.122 66.7308L0.812317 66.6258C0.740317 41.1198 7.46532 7.11084 68.6733 7.11084C122.223 7.11084 173.122 29.7988 173.122 66.7308Z" stroke="#263238" stroke-width="1.263" stroke-linecap="round" stroke-linejoin="round"/>
<path fill-rule="evenodd" clip-rule="evenodd" d="M173.123 66.5841L173.122 66.5571H0.74086C0.709854 68.4491 2.63785 69.9951 5.02585 69.9951H168.887C171.255 69.9951 173.165 68.4591 173.123 66.5841Z" fill="#263238"/>
<path fill-rule="evenodd" clip-rule="evenodd" d="M173.123 66.5841L173.122 66.5571H0.74086C0.70986 68.4491 2.63785 69.9951 5.02585 69.9951H168.887C171.255 69.9951 173.165 68.4591 173.123 66.5841Z" stroke="#263238" stroke-width="1.263" stroke-linecap="round" stroke-linejoin="round"/>
<path fill-rule="evenodd" clip-rule="evenodd" d="M32.4525 51.3059C21.8535 51.3059 18.3125 54.8479 18.3125 65.4459C18.3125 76.0449 21.8535 79.5869 32.4525 79.5869C34.1295 79.5869 35.6295 79.4979 36.9665 79.3069C44.0835 78.2889 46.5925 74.3679 46.5925 65.4459C46.5925 54.8479 43.0515 51.3059 32.4525 51.3059Z" fill="#263238"/>
<path fill-rule="evenodd" clip-rule="evenodd" d="M32.4525 51.3059C21.8535 51.3059 18.3125 54.8479 18.3125 65.4459C18.3125 76.0449 21.8535 79.5869 32.4525 79.5869C34.1295 79.5869 35.6295 79.4979 36.9665 79.3069C44.0835 78.2889 46.5925 74.3679 46.5925 65.4459C46.5925 54.8479 43.0515 51.3059 32.4525 51.3059Z" stroke="#263238" stroke-width="1.263" stroke-linecap="round" stroke-linejoin="round"/>
<path fill-rule="evenodd" clip-rule="evenodd" d="M32.4524 59.2778C27.8294 59.2778 26.2844 60.8228 26.2844 65.4458C26.2844 70.0698 27.8294 71.6148 32.4524 71.6148C33.1834 71.6148 33.8384 71.5758 34.4214 71.4928C37.5254 71.0488 38.6204 69.3378 38.6204 65.4458C38.6204 60.8228 37.0754 59.2778 32.4524 59.2778Z" fill="white"/>
<path fill-rule="evenodd" clip-rule="evenodd" d="M32.4524 59.2778C27.8294 59.2778 26.2844 60.8228 26.2844 65.4458C26.2844 70.0698 27.8294 71.6148 32.4524 71.6148C33.1834 71.6148 33.8384 71.5758 34.4214 71.4928C37.5254 71.0488 38.6204 69.3378 38.6204 65.4458C38.6204 60.8228 37.0754 59.2778 32.4524 59.2778Z" stroke="#263238" stroke-width="1.263" stroke-linecap="round" stroke-linejoin="round"/>
<path fill-rule="evenodd" clip-rule="evenodd" d="M140.749 51.3059C130.15 51.3059 126.609 54.8479 126.609 65.4459C126.609 76.0449 130.15 79.5869 140.749 79.5869C142.426 79.5869 143.926 79.4979 145.263 79.3069C152.38 78.2889 154.889 74.3679 154.889 65.4459C154.889 54.8479 151.348 51.3059 140.749 51.3059Z" fill="#263238"/>
<path fill-rule="evenodd" clip-rule="evenodd" d="M140.749 51.3059C130.15 51.3059 126.609 54.8479 126.609 65.4459C126.609 76.0449 130.15 79.5869 140.749 79.5869C142.426 79.5869 143.926 79.4979 145.263 79.3069C152.38 78.2889 154.889 74.3679 154.889 65.4459C154.889 54.8479 151.348 51.3059 140.749 51.3059Z" stroke="#263238" stroke-width="1.263" stroke-linecap="round" stroke-linejoin="round"/>
<path fill-rule="evenodd" clip-rule="evenodd" d="M140.749 59.2778C136.126 59.2778 134.581 60.8228 134.581 65.4458C134.581 70.0698 136.126 71.6148 140.749 71.6148C141.48 71.6148 142.135 71.5758 142.718 71.4928C145.822 71.0488 146.917 69.3378 146.917 65.4458C146.917 60.8228 145.372 59.2778 140.749 59.2778Z" fill="white"/>
<path fill-rule="evenodd" clip-rule="evenodd" d="M140.749 59.2778C136.126 59.2778 134.581 60.8228 134.581 65.4458C134.581 70.0698 136.126 71.6148 140.749 71.6148C141.48 71.6148 142.135 71.5758 142.718 71.4928C145.822 71.0488 146.917 69.3378 146.917 65.4458C146.917 60.8228 145.372 59.2778 140.749 59.2778Z" stroke="#263238" stroke-width="1.263" stroke-linecap="round" stroke-linejoin="round"/>
<path fill-rule="evenodd" clip-rule="evenodd" d="M73.8352 37.3411C73.7322 37.3411 73.6582 37.4411 73.6882 37.5391C74.0432 38.6991 74.9382 39.1261 76.6812 39.1261C78.4252 39.1261 79.3192 38.6991 79.6752 37.5391C79.7052 37.4411 79.6302 37.3411 79.5282 37.3411H73.8352Z" fill="#263238"/>
<path fill-rule="evenodd" clip-rule="evenodd" d="M73.8352 37.3411C73.7322 37.3411 73.6582 37.4411 73.6882 37.5391C74.0432 38.6991 74.9382 39.1261 76.6812 39.1261C78.4252 39.1261 79.3192 38.6991 79.6752 37.5391C79.7052 37.4411 79.6302 37.3411 79.5282 37.3411H73.8352Z" stroke="#263238" stroke-width="1.263" stroke-linecap="round" stroke-linejoin="round"/>
<path fill-rule="evenodd" clip-rule="evenodd" d="M4.08773 42.2066C8.83973 42.2066 13.6397 41.0436 14.6087 37.8796C14.6897 37.6126 14.4867 37.3416 14.2077 37.3416H6.65973" fill="#263238"/>
<path d="M4.08773 42.2066C8.83973 42.2066 13.6397 41.0436 14.6087 37.8796C14.6897 37.6126 14.4867 37.3416 14.2077 37.3416H6.65973" stroke="#263238" stroke-width="1.263" stroke-linecap="round" stroke-linejoin="round"/>
<path fill-rule="evenodd" clip-rule="evenodd" d="M9.35719 78.1838L11.3542 80.4788H164.005L166.002 78.1838H9.35719Z" fill="#263238"/>
<path fill-rule="evenodd" clip-rule="evenodd" d="M9.35719 78.1838L11.3542 80.4788H164.005L166.002 78.1838H9.35719Z" stroke="#263238" stroke-width="1.263" stroke-linecap="round" stroke-linejoin="round"/>
<path fill-rule="evenodd" clip-rule="evenodd" d="M23.1118 22.1951C15.6498 27.1261 13.5338 31.6971 13.5338 31.6971L23.1118 31.6761V22.1951Z" fill="#263238"/>
<path fill-rule="evenodd" clip-rule="evenodd" d="M23.1118 22.1951C15.6498 27.1261 13.5338 31.6971 13.5338 31.6971L23.1118 31.6761V22.1951Z" stroke="#263238" stroke-width="1.263" stroke-linecap="round" stroke-linejoin="round"/>
<path fill-rule="evenodd" clip-rule="evenodd" d="M25.988 20.4208V31.6758H65.873V10.9988C46.783 11.2978 34.107 15.7338 25.988 20.4208Z" fill="white"/>
<path fill-rule="evenodd" clip-rule="evenodd" d="M25.988 20.4208V31.6758H65.873V10.9988C46.783 11.2978 34.107 15.7338 25.988 20.4208Z" stroke="#263238" stroke-width="1.263" stroke-linecap="round" stroke-linejoin="round"/>
<path fill-rule="evenodd" clip-rule="evenodd" d="M100.23 13.8279V31.6769H148.252C148.252 31.6769 131.295 19.4989 100.23 13.8279Z" fill="white"/>
<path fill-rule="evenodd" clip-rule="evenodd" d="M100.23 13.8279V31.6769H148.252C148.252 31.6769 131.295 19.4989 100.23 13.8279Z" stroke="#263238" stroke-width="1.263" stroke-linecap="round" stroke-linejoin="round"/>
<path fill-rule="evenodd" clip-rule="evenodd" d="M68.6728 10.9856V31.6756H88.4568V12.1016C82.2968 11.4146 75.6988 11.0056 68.6728 10.9856Z" fill="#263238"/>
<path fill-rule="evenodd" clip-rule="evenodd" d="M68.6728 10.9856V31.6756H88.4568V12.1016C82.2968 11.4146 75.6988 11.0056 68.6728 10.9856Z" stroke="#263238" stroke-width="1.263" stroke-linecap="round" stroke-linejoin="round"/>
<path fill-rule="evenodd" clip-rule="evenodd" d="M100.23 27.1306V13.8286C96.506 13.1486 92.581 12.5626 88.457 12.1016V31.6756H100.23V27.1306Z" fill="#263238"/>
<path fill-rule="evenodd" clip-rule="evenodd" d="M100.23 27.1306V13.8286C96.506 13.1486 92.581 12.5626 88.457 12.1016V31.6756H100.23V27.1306Z" stroke="#263238" stroke-width="1.263" stroke-linecap="round" stroke-linejoin="round"/>
<path fill-rule="evenodd" clip-rule="evenodd" d="M35.3377 20.8232C28.3297 20.8232 25.9887 22.2982 25.9887 26.7102V31.2552H44.6877V26.7102C44.6877 22.2982 42.3457 20.8232 35.3377 20.8232Z" fill="#263238"/>
<path fill-rule="evenodd" clip-rule="evenodd" d="M35.3377 20.8232C28.3297 20.8232 25.9887 22.2982 25.9887 26.7102V31.2552H44.6877V26.7102C44.6877 22.2982 42.3457 20.8232 35.3377 20.8232Z" stroke="#263238" stroke-width="1.591" stroke-linecap="round" stroke-linejoin="round"/>
<path d="M150.302 36.9385H159.818" stroke="#263238" stroke-width="1.263" stroke-linecap="round" stroke-linejoin="round"/>
<path fill-rule="evenodd" clip-rule="evenodd" d="M164.65 42.6073L151.675 42.6093C151.213 42.6093 150.755 42.5813 150.302 42.5293" fill="white"/>
<path d="M164.65 42.6073L151.675 42.6093C151.213 42.6093 150.755 42.5813 150.302 42.5293" stroke="#263238" stroke-width="1.263" stroke-linecap="round" stroke-linejoin="round"/>
<path fill-rule="evenodd" clip-rule="evenodd" d="M150.302 36.9385H142.514C143.341 39.9995 146.595 42.1065 150.302 42.5295V36.9385Z" fill="white"/>
<path fill-rule="evenodd" clip-rule="evenodd" d="M150.302 36.9385H142.514C143.341 39.9995 146.595 42.1065 150.302 42.5295V36.9385Z" stroke="#263238" stroke-width="1.263" stroke-linecap="round" stroke-linejoin="round"/>
<path d="M68.6729 11.0227V66.6627" stroke="#263238" stroke-width="1.263" stroke-linecap="round" stroke-linejoin="round"/>
<path fill-rule="evenodd" clip-rule="evenodd" d="M100.154 12.459C101.469 12.442 101.914 12.876 101.93 14.19C101.947 15.505 101.514 15.95 100.199 15.967C98.8853 15.984 98.4403 15.55 98.4233 14.235C98.4063 12.921 98.8393 12.476 100.154 12.459Z" fill="white"/>
<path fill-rule="evenodd" clip-rule="evenodd" d="M100.154 12.459C101.469 12.442 101.914 12.876 101.93 14.19C101.947 15.505 101.514 15.95 100.199 15.967C98.8853 15.984 98.4403 15.55 98.4233 14.235C98.4063 12.921 98.8393 12.476 100.154 12.459Z" stroke="#263238" stroke-width="1.272"/>
<path fill-rule="evenodd" clip-rule="evenodd" d="M108.073 7.11362C113.741 7.04062 115.659 8.91062 115.733 14.5786C115.806 20.2466 113.936 22.1646 108.268 22.2376C102.6 22.3106 100.682 20.4416 100.608 14.7736C100.535 9.10562 102.405 7.18662 108.073 7.11362Z" fill="white"/>
<path fill-rule="evenodd" clip-rule="evenodd" d="M108.073 7.11362C113.741 7.04062 115.659 8.91062 115.733 14.5786C115.806 20.2466 113.936 22.1646 108.268 22.2376C102.6 22.3106 100.682 20.4416 100.608 14.7736C100.535 9.10562 102.405 7.18662 108.073 7.11362Z" stroke="#263238" stroke-width="1.272"/>
<path fill-rule="evenodd" clip-rule="evenodd" d="M112.034 13.025C112.063 15.246 112.814 15.978 115.034 15.95C116.671 15.929 117.982 14.585 117.961 12.948C117.956 12.566 117.642 12.26 117.259 12.265L112.717 12.324C112.335 12.328 112.029 12.642 112.034 13.025Z" stroke="#263238" stroke-width="1.272"/>
<path fill-rule="evenodd" clip-rule="evenodd" d="M108.954 13.0644C108.983 15.2854 108.25 16.0374 106.03 16.0664C104.394 16.0874 103.048 14.7774 103.027 13.1404C103.022 12.7584 103.328 12.4444 103.711 12.4394L108.253 12.3814C108.635 12.3764 108.949 12.6824 108.954 13.0644Z" fill="#263238"/>
<path fill-rule="evenodd" clip-rule="evenodd" d="M108.954 13.0644C108.983 15.2854 108.25 16.0374 106.03 16.0664C104.394 16.0874 103.048 14.7774 103.027 13.1404C103.022 12.7584 103.328 12.4444 103.711 12.4394L108.253 12.3814C108.635 12.3764 108.949 12.6824 108.954 13.0644Z" stroke="#263238" stroke-width="1.272"/>
<path d="M110.746 19.1289L109.333 19.1469" stroke="#263238" stroke-width="1.272" stroke-linecap="round"/>
<path d="M114.567 12.2995L104.63 12.4275" stroke="#263238" stroke-width="1.272"/>
<path fill-rule="evenodd" clip-rule="evenodd" d="M101.144 10.7844C102.958 7.80041 108.186 8.00341 111.969 7.95441C115.751 7.90541 117.883 6.90941 117.85 4.35741C117.817 1.80541 115.05 0.960413 111.879 1.00141C107.995 1.05141 103.325 3.44341 101.144 10.7844Z" fill="#263238"/>
<path fill-rule="evenodd" clip-rule="evenodd" d="M101.144 10.7844C102.958 7.80041 108.186 8.00341 111.969 7.95441C115.751 7.90541 117.883 6.90941 117.85 4.35741C117.817 1.80541 115.05 0.960413 111.879 1.00141C107.995 1.05141 103.325 3.44341 101.144 10.7844Z" stroke="#263238" stroke-width="1.272" stroke-linecap="round" stroke-linejoin="round"/>
<path fill-rule="evenodd" clip-rule="evenodd" d="M112.034 13.025C112.063 15.246 112.814 15.978 115.034 15.95C116.671 15.929 117.982 14.585 117.961 12.948C117.956 12.566 117.642 12.26 117.259 12.265L112.717 12.324C112.335 12.328 112.029 12.642 112.034 13.025Z" fill="#263238"/>
<path fill-rule="evenodd" clip-rule="evenodd" d="M112.397 24.5643L112.307 31.5083C106.29 31.5713 101.465 31.6343 101.465 31.6343L101.516 27.6843C101.539 25.8843 103.017 24.4433 104.817 24.4663L112.397 24.5643Z" fill="#FF9D00"/>
<path fill-rule="evenodd" clip-rule="evenodd" d="M112.397 24.5643L112.307 31.5083C106.29 31.5713 101.465 31.6343 101.465 31.6343L101.516 27.6843C101.539 25.8843 103.017 24.4433 104.817 24.4663L112.397 24.5643Z" stroke="#263238" stroke-width="1.272"/>
<path fill-rule="evenodd" clip-rule="evenodd" d="M135.517 31.467C134.793 31.304 122.002 31.406 112.308 31.509L112.397 24.564L113.707 24.581C121.204 24.198 134.776 31.088 135.517 31.467Z" fill="white"/>
<path fill-rule="evenodd" clip-rule="evenodd" d="M135.517 31.467C134.793 31.304 122.002 31.406 112.308 31.509L112.397 24.564L113.707 24.581C121.204 24.198 134.776 31.088 135.517 31.467Z" stroke="#263238" stroke-width="1.272" stroke-linejoin="round"/>
<path fill-rule="evenodd" clip-rule="evenodd" d="M109.237 24.4912L109.139 32.0962L109.237 24.4912Z" fill="white"/>
<path d="M109.237 24.4912L109.139 32.0962" stroke="#263238" stroke-width="1.272"/>
</svg>
